<?xml version="1.0" encoding="utf-8"?>
<!-- Generator: Adobe Illustrator 16.0.0, SVG Export Plug-In . SVG Version: 6.00 Build 0)  -->
<!DOCTYPE svg PUBLIC "-//W3C//DTD SVG 1.1//EN" "http://www.w3.org/Graphics/SVG/1.1/DTD/svg11.dtd">
<svg version="1.1" id="Layer_1" xmlns="http://www.w3.org/2000/svg" xmlns:xlink="http://www.w3.org/1999/xlink" x="0px" y="0px"
	 width="342px" height="330px" viewBox="0 0 342 330" enable-background="new 0 0 342 330" xml:space="preserve">
<rect fill="#073151" width="342" height="330"/>
<g>
	<g>
		<path fill="#D0021B" d="M27.547,261.52c0.124,1.176,1.176,2.029,2.352,1.905c0,0,0,0,0,0c1.175-0.119,2.03-1.168,1.911-2.343
			v-0.001l-0.988-9.531c-0.124-1.175-1.177-2.027-2.352-1.905c-1.175,0.119-2.031,1.169-1.911,2.344c0,0,0,0,0,0.001L27.547,261.52
			L27.547,261.52z M40.957,263.425c1.175,0.124,2.229-0.729,2.352-1.904v-0.001l0.988-9.53c0.121-1.175-0.734-2.224-1.908-2.344
			c-0.001-0.001-0.002-0.001-0.003-0.001c-1.175-0.122-2.228,0.73-2.352,1.904l-0.988,9.531c-0.12,1.175,0.734,2.225,1.909,2.345
			C40.956,263.425,40.957,263.425,40.957,263.425z M24.365,272.708c-3.657,0-6.633,2.966-6.633,6.61
			c0,3.646,2.976,6.613,6.633,6.613c3.658,0,6.633-2.967,6.633-6.613C30.998,275.674,28.023,272.709,24.365,272.708L24.365,272.708z
			 M24.365,281.66c-1.294,0-2.344-1.047-2.347-2.342c0-1.289,1.053-2.34,2.347-2.34c1.294,0,2.344,1.047,2.348,2.34
			C26.709,280.613,25.659,281.66,24.365,281.66z M46.491,272.708c-3.657,0-6.633,2.966-6.633,6.61c0,3.646,2.975,6.613,6.633,6.613
			c3.658,0,6.634-2.967,6.634-6.613C53.125,275.674,50.149,272.709,46.491,272.708L46.491,272.708z M46.491,281.66
			c-1.294,0-2.344-1.047-2.347-2.342c0-1.289,1.053-2.34,2.347-2.34c1.294,0,2.344,1.047,2.348,2.34
			C48.836,280.613,47.785,281.66,46.491,281.66z"/>
		<path fill="#D0021B" d="M59.309,242.52c-0.407-0.523-1.033-0.83-1.696-0.83H14.901l-1.794-6.873c-0.247-0.943-1.099-1.6-2.074-1.6
			H2.25c-1.182-0.002-2.141,0.955-2.143,2.137c0,1.18,0.96,2.136,2.143,2.136h7.126l1.78,6.819c0.008,0.037,0.018,0.075,0.029,0.113
			L17.8,269.78c0.248,0.942,1.1,1.599,2.074,1.598h31.107c0.976,0,1.828-0.657,2.074-1.598l6.631-25.417
			C59.853,243.723,59.713,243.043,59.309,242.52L59.309,242.52z M49.325,267.107H21.532l-5.517-21.146h38.827L49.325,267.107z
			 M27.016,235.05c0.402,0.401,0.947,0.627,1.515,0.626c0.569,0.001,1.114-0.225,1.516-0.626c0.834-0.829,0.837-2.179,0.007-3.013
			c-0.002-0.002-0.005-0.004-0.008-0.007l-6.74-6.716c-0.838-0.833-2.192-0.833-3.03,0c-0.834,0.83-0.837,2.18-0.007,3.014
			c0.002,0.003,0.005,0.006,0.007,0.008L27.016,235.05L27.016,235.05z M42.335,235.675c0.568,0.001,1.114-0.224,1.516-0.626
			l6.73-6.713c0.833-0.83,0.836-2.179,0.006-3.012c-0.003-0.003-0.005-0.006-0.008-0.008c-0.838-0.834-2.192-0.834-3.03,0
			l-6.73,6.714c-0.833,0.83-0.836,2.179-0.005,3.012c0.002,0.003,0.005,0.005,0.007,0.008
			C41.223,235.451,41.768,235.676,42.335,235.675z M35.43,233.758c1.182,0.002,2.142-0.954,2.144-2.136l0,0l0.002-9.486
			c-0.002-1.181-0.961-2.137-2.142-2.136c-1.182-0.002-2.141,0.953-2.144,2.135l-0.002,9.486
			C33.29,232.803,34.249,233.76,35.43,233.758z"/>
	</g>
	<path fill="#F5A623" d="M100.964,227.541c-14.044,13.259-14.68,35.391-1.422,49.434c0.233,0.248,0.47,0.491,0.71,0.731
		c13.657,13.657,35.798,13.657,49.454,0c13.657-13.655,13.657-35.797,0-49.453C136.329,214.863,114.726,214.548,100.964,227.541z
		 M107.672,242.594l6.923-6.923l10.385,10.386l10.385-10.386l6.924,6.923l-10.385,10.389l10.386,10.382l-6.924,6.924l-10.385-10.386
		l-10.386,10.386l-6.923-6.924l10.385-10.382L107.672,242.594z"/>
	<g>
		<path fill="#FFFFFF" d="M38.645,324.607c0,0-0.677-0.433-1.129-0.575c0,0-1.355-0.576-1.58-0.863c0,0-0.527-0.504-0.226-1.007
			c0,0,0.15-0.36,0.677-0.36c0,0,0.753,0.072,0.753,0.576v0.79h2.559v-1.15c0,0,0.226-1.94-3.01-2.013c0,0-2.56-0.144-3.237,1.149
			c0,0-0.301,0.289-0.301,1.296v0.719c0,0,0,0.863,0.451,1.366c0,0,0.226,0.359,0.903,0.719c0,0,1.28,0.646,2.033,1.007
			c0,0,0.752,0.431,0.677,1.078c0,0-0.075,0.72-0.828,0.647c0,0-0.677,0-0.677-0.719v-0.647H33v1.149c0,0-0.075,2.23,3.462,2.23
			c0,0,3.387,0.072,3.538-2.23v-1.006C39.85,326.764,40,325.326,38.645,324.607L38.645,324.607z M25.448,320l-0.91,5.462H24.31
			L23.476,320h-4.324L19,330h2.503l0.076-7.538h0.152L23.097,330h2.73l1.366-7.538h0.152L27.42,330H30l-0.303-10H25.448z M10.51,320
			L9,330h2.47l0.961-7.691h0.206L13.53,330H16l-1.51-10H10.51z M66.466,324.527v1.367h0.786v1.51c0,0.718-0.707,0.718-0.707,0.718
			c-0.785,0-0.785-0.72-0.785-0.72V322.3c0-0.503,0.706-0.573,0.706-0.573c0.707,0,0.707,0.646,0.707,0.646v0.79h2.67
			c0.078-1.508-0.236-1.868-0.236-1.868c-0.628-1.364-3.14-1.293-3.14-1.293c-3.848,0-3.456,2.729-3.456,2.729v4.961
			c0.079,2.586,3.927,2.3,4.005,2.3c1.728-0.144,2.199-0.647,2.199-0.647c0.47-0.287,0.628-0.79,0.628-0.79
			C70,328.266,70,327.475,70,327.475V324.6h-3.534V324.527z M57.673,326.077h-0.146L55.055,320H52v10h2.473l-0.146-6.077H54.4
			L57.018,330H60v-10h-2.473L57.673,326.077z M46.292,327.26c0,0,0,0.814-0.677,0.814c0,0-0.752,0.074-0.752-0.74v-7.26h-2.858
			v7.185c0,0-0.3,2.74,3.61,2.74c0,0,3.385,0.075,3.385-2.592V320h-2.708V327.26z M5.795,324.604c0,0-0.677-0.431-1.129-0.574
			c0,0-1.355-0.576-1.58-0.864c0,0-0.527-0.503-0.226-1.007c0,0,0.15-0.36,0.677-0.36c0,0,0.753,0.072,0.753,0.576v0.791h2.483
			v-1.149c0,0,0.227-1.945-3.01-2.016H3.161c0,0-1.957,0.072-2.634,1.15c0,0-0.301,0.289-0.301,1.295v0.721c0,0,0,0.863,0.451,1.366
			c0,0,0.226,0.36,0.904,0.72c0,0,1.279,0.646,2.032,1.007c0,0,0.752,0.431,0.677,1.079c0,0-0.075,0.721-0.828,0.646
			c0,0-0.677,0-0.677-0.719v-0.646H0v1.15c0,0-0.075,2.23,3.462,2.23c0,0,3.387,0.073,3.537-2.23v-1.006
			c0,0,0.075-1.438-1.204-2.158V324.604z"/>
	</g>
	<path fill="#6AC259" d="M221,218c-19.33,0-35,15.67-35,35s15.67,35,35,35c19.331,0,35-15.67,35-35S240.33,218,221,218z
		 M214.58,270.979l-15.412-15.41l5.137-5.137l10.275,10.274l23.115-23.117l5.137,5.138L214.58,270.979L214.58,270.979z"/>
	<g>
		<path fill="#09539F" d="M42.442,21.532c0-0.942,0.755-1.709,1.684-1.709c0.927,0,1.682,0.767,1.682,1.709
			c0,0.944-0.755,1.712-1.682,1.712C43.197,23.244,42.442,22.476,42.442,21.532z M45.399,21.532c0-0.799-0.57-1.379-1.273-1.379
			c-0.705,0-1.273,0.58-1.273,1.379c0,0.802,0.568,1.38,1.273,1.38C44.829,22.912,45.399,22.334,45.399,21.532z M43.476,20.557h0.71
			c0.455,0,0.705,0.16,0.705,0.569c0,0.332-0.188,0.492-0.5,0.521l0.512,0.847H44.54l-0.493-0.834h-0.215v0.834h-0.356V20.557z
			 M43.832,21.387h0.313c0.206,0,0.391-0.031,0.391-0.29c0-0.23-0.204-0.266-0.387-0.266h-0.317V21.387z"/>
		<path fill="#F37226" d="M24.036,0.154c-2.6,0-4.79,1.775-5.466,4.196c-0.051,0.182-0.093,0.367-0.126,0.553L13.218,27.91h7.759
			c2.658,0,4.89-1.856,5.51-4.363h0.002l5.314-23.392h-7.767V0.154z"/>
		<path fill="#53B949" d="M36.938,4.78c-2.427,0-4.498,1.549-5.31,3.725c-0.065,0.189-0.127,0.38-0.187,0.571l-3.227,14.208h7.76
			c2.666,0,4.903-1.867,5.516-4.385L41.489,18.9l3.207-14.12H36.938z"/>
		<path fill="#09539F" d="M3.647,8.745C3.629,8.797,3.613,8.849,3.598,8.901L3.474,9.395L0.32,23.283h7.947
			c2.376,0,4.397-1.53,5.167-3.673l0.3-1.322L16.8,4.781H9.043C6.528,4.781,4.395,6.443,3.647,8.745z"/>
		<path fill="#FFFFFF" d="M5.582,9.905c-0.438,0.367-0.719,0.816-0.802,1.174l-1.641,7.53l0.092-0.002
			c0.512,0,0.993-0.183,1.429-0.549c0.437-0.364,0.715-0.81,0.826-1.327l0.42-1.913H9.43c0.51,0,0.993-0.185,1.435-0.55
			c0.442-0.366,0.723-0.815,0.832-1.334l0.02-0.095H6.343l0.328-1.507h5.092c0.513,0,0.993-0.183,1.43-0.546
			c0.435-0.363,0.707-0.821,0.827-1.336l0.02-0.096L7.01,9.353C6.5,9.355,6.018,9.54,5.582,9.905 M41.46,9.802
			c-0.283-0.288-0.652-0.433-1.097-0.433h-7.024l-0.013,0.062c-0.027,0.14-0.041,0.27-0.041,0.394c0,0.436,0.142,0.803,0.425,1.09
			c0.284,0.288,0.652,0.433,1.098,0.433h1.517l-1.523,7.263h0.095c0.51,0,0.989-0.183,1.424-0.546
			c0.435-0.364,0.709-0.811,0.813-1.329l1.128-5.388h3.571l0.012-0.064c0.028-0.132,0.04-0.27,0.04-0.405
			C41.885,10.449,41.742,10.088,41.46,9.802 M26.045,9.356h-4.749l0.002-0.005h-1.951L17.41,18.61h0.094
			c0.51,0,0.99-0.185,1.424-0.55c0.435-0.363,0.709-0.81,0.815-1.328l0.394-1.903h4.793c0.51,0,0.99-0.184,1.425-0.545
			c0.433-0.362,0.711-0.812,0.826-1.339l0.361-1.673c0.026-0.131,0.04-0.269,0.04-0.408c0-0.427-0.145-0.79-0.432-1.077
			C26.862,9.501,26.49,9.356,26.045,9.356z M20.876,11.335h4.703l-0.323,1.515h-4.707L20.876,11.335z"/>
		<g>
			<path fill="#FFFFFF" d="M49.877,16.198c0.51,0.263,1.328,0.523,2.156,0.523c0.892,0,1.366-0.36,1.366-0.909
				c0-0.525-0.408-0.825-1.442-1.174c-1.429-0.498-2.373-1.272-2.373-2.495c0-1.435,1.237-2.52,3.254-2.52
				c0.982,0,1.684,0.188,2.195,0.423l-0.436,1.523c-0.558-0.266-1.167-0.403-1.785-0.4c-0.842,0-1.25,0.386-1.25,0.811
				c0,0.537,0.471,0.773,1.595,1.186c1.518,0.549,2.22,1.324,2.22,2.508c0,1.408-1.097,2.607-3.458,2.607
				c-0.983,0-1.951-0.262-2.437-0.524L49.877,16.198z M56.588,9.288h1.94v3.506h0.023c0.205-0.275,0.46-0.488,0.767-0.637
				c0.294-0.15,0.651-0.237,1.008-0.237c1.238,0,2.183,0.836,2.183,2.682v3.555h-1.94v-3.355c0-0.8-0.28-1.347-1.007-1.347
				c-0.512,0-0.83,0.324-0.97,0.674c-0.052,0.111-0.064,0.273-0.064,0.41v3.618h-1.94V9.288L56.588,9.288z M66.936,18.296
				c-1.825,0-3.228-1.175-3.228-3.144c0-1.97,1.327-3.232,3.343-3.232c1.902,0,3.176,1.286,3.176,3.132
				c0,2.222-1.62,3.244-3.278,3.244H66.936z M66.986,16.936c0.767,0,1.237-0.738,1.237-1.836c0-0.897-0.356-1.821-1.237-1.821
				c-0.918,0-1.274,0.924-1.274,1.834c0,1.035,0.445,1.823,1.262,1.823H66.986z M71.428,14.103c0-0.799-0.026-1.472-0.051-2.047
				h1.685l0.086,0.849h0.028c0.458-0.636,1.174-0.986,2.08-0.986c1.365,0,2.589,1.16,2.589,3.107c0,2.22-1.44,3.269-2.832,3.269
				c-0.753,0-1.339-0.3-1.62-0.699h-0.028v3.032H71.43v-6.525H71.428L71.428,14.103z M73.365,15.538c0,0.149,0.015,0.274,0.04,0.4
				c0.127,0.51,0.573,0.896,1.135,0.896c0.841,0,1.34-0.686,1.34-1.72c0-0.974-0.447-1.71-1.314-1.71c-0.55,0-1.034,0.4-1.161,0.96
				c-0.025,0.1-0.04,0.225-0.04,0.338V15.538z"/>
		</g>
	</g>
	<g>
		<path fill="#09539F" d="M45.244,57.07c0-1.009,0.806-1.83,1.796-1.83c0.988,0,1.793,0.821,1.793,1.83
			c0,1.011-0.805,1.834-1.793,1.834C46.05,58.904,45.244,58.081,45.244,57.07z M48.397,57.07c0-0.856-0.608-1.477-1.357-1.477
			c-0.752,0-1.357,0.621-1.357,1.477c0,0.859,0.605,1.48,1.357,1.48C47.789,58.548,48.397,57.929,48.397,57.07z M46.347,56.025
			h0.757c0.485,0,0.751,0.173,0.751,0.61c0,0.356-0.2,0.527-0.532,0.558l0.545,0.908h-0.387l-0.525-0.894h-0.23v0.894h-0.379V56.025
			z M46.727,56.915h0.333c0.22,0,0.417-0.034,0.417-0.31c0-0.247-0.217-0.286-0.413-0.286h-0.337V56.915L46.727,56.915z"/>
		<path fill="#F37226" d="M25.624,34.165c-2.771,0-5.107,1.902-5.828,4.495c-0.054,0.196-0.099,0.394-0.134,0.594l-5.571,24.65
			h8.271c2.834,0,5.213-1.99,5.874-4.675h0.002l5.665-25.064H25.624L25.624,34.165z"/>
		<path fill="#53B949" d="M39.378,39.122c-2.588,0-4.795,1.659-5.662,3.99c-0.045,0.12-0.198,0.613-0.198,0.613l-3.44,15.222h8.271
			c2.843,0,5.227-2,5.88-4.698v0.001l3.418-15.128H39.378L39.378,39.122z"/>
		<path fill="#09539F" d="M3.888,43.37c-0.019,0.055-0.036,0.11-0.052,0.166l-0.132,0.53L0.34,58.946h8.472
			c2.533,0,4.687-1.64,5.508-3.935l0.32-1.417l3.27-14.472H9.64C6.958,39.122,4.685,40.903,3.888,43.37L3.888,43.37z"/>
		<path fill="#FFFFFF" d="M5.95,44.613c-0.467,0.393-0.766,0.873-0.854,1.258l-1.75,8.068l0.098-0.002
			c0.546,0,1.059-0.197,1.524-0.589c0.466-0.39,0.762-0.869,0.88-1.422l0.449-2.05h3.756c0.544,0,1.058-0.197,1.53-0.59
			c0.47-0.39,0.77-0.872,0.886-1.428l0.021-0.102H6.762l0.35-1.615h5.428c0.546,0,1.058-0.196,1.524-0.585
			c0.444-0.366,0.754-0.87,0.882-1.431l0.021-0.103l-7.493-0.001C6.928,44.023,6.415,44.221,5.95,44.613 M44.198,44.502
			c-0.302-0.308-0.695-0.464-1.17-0.464H35.54l-0.013,0.067c-0.03,0.15-0.044,0.29-0.044,0.422c0,0.467,0.152,0.86,0.454,1.168
			c0.302,0.308,0.694,0.464,1.17,0.464h1.617l-1.623,7.78h0.1c0.545,0,1.055-0.195,1.519-0.584c0.463-0.39,0.755-0.869,0.866-1.424
			l1.202-5.772h3.808l0.012-0.069c0.03-0.141,0.043-0.288,0.043-0.434C44.651,45.196,44.498,44.808,44.198,44.502 M27.765,44.024
			h-5.062l0.001-0.006h-2.08L18.56,53.94h0.1c0.544,0,1.055-0.198,1.518-0.59c0.463-0.388,0.756-0.867,0.869-1.422l0.42-2.039h5.11
			c0.543,0,1.054-0.197,1.519-0.584c0.461-0.387,0.758-0.87,0.88-1.434l0.385-1.793c0.028-0.14,0.042-0.288,0.042-0.437
			c0-0.457-0.154-0.846-0.46-1.154C28.636,44.181,28.24,44.025,27.765,44.024L27.765,44.024z M22.255,46.144h5.013l-0.344,1.624
			h-5.018L22.255,46.144L22.255,46.144z"/>
	</g>
	<g>
		<path d="M53.17,51.355c0.545,0.282,1.416,0.56,2.299,0.56c0.951,0,1.456-0.386,1.456-0.973c0-0.563-0.435-0.884-1.537-1.258
			c-1.523-0.534-2.53-1.363-2.53-2.674c0-1.537,1.32-2.7,3.47-2.7c1.046,0,1.795,0.201,2.339,0.454l-0.464,1.632
			c-0.594-0.285-1.245-0.432-1.904-0.428c-0.897,0-1.333,0.413-1.333,0.868c0,0.575,0.504,0.828,1.701,1.27
			c1.619,0.588,2.367,1.419,2.367,2.687c0,1.51-1.17,2.794-3.687,2.794c-1.047,0-2.08-0.28-2.598-0.562L53.17,51.355L53.17,51.355z
			 M60.325,43.951h2.067v3.757h0.026c0.218-0.295,0.49-0.523,0.818-0.683c0.312-0.16,0.693-0.253,1.073-0.253
			c1.32,0,2.328,0.895,2.328,2.873v3.81H64.57v-3.596c0-0.856-0.3-1.443-1.075-1.443c-0.545,0-0.884,0.348-1.034,0.722
			c-0.055,0.12-0.068,0.293-0.068,0.44v3.876h-2.068V43.951z M71.356,53.603c-1.945,0-3.441-1.259-3.441-3.368
			c0-2.112,1.415-3.463,3.564-3.463c2.027,0,3.386,1.377,3.386,3.355c0,2.38-1.727,3.476-3.494,3.476H71.356z M71.41,52.145
			c0.818,0,1.319-0.79,1.319-1.966c0-0.962-0.38-1.952-1.319-1.952c-0.979,0-1.359,0.99-1.359,1.966
			c0,1.109,0.475,1.952,1.345,1.952H71.41z M76.145,49.11c0-0.856-0.027-1.577-0.055-2.193h1.796l0.093,0.91h0.03
			c0.488-0.682,1.25-1.056,2.217-1.056c1.454,0,2.76,1.243,2.76,3.328c0,2.379-1.536,3.503-3.019,3.503
			c-0.803,0-1.427-0.321-1.728-0.749H78.21v3.248h-2.064L76.145,49.11L76.145,49.11z M78.209,50.648c0,0.16,0.017,0.294,0.043,0.429
			c0.136,0.546,0.612,0.96,1.21,0.96c0.897,0,1.428-0.736,1.428-1.844c0-1.043-0.476-1.83-1.4-1.83
			c-0.585,0-1.102,0.427-1.238,1.028c-0.026,0.107-0.043,0.24-0.043,0.36V50.648z"/>
		<text transform="matrix(1 0 0 1 82.9858 53.2666)" font-family="'Arial-BoldMT'" font-size="7">.com.vn</text>
	</g>
	<path fill="none" d="M36,124h24v24H36V124z"/>
	<path fill="#FFFFFF" d="M52.1,124.8h-8c-1.381,0-2.5,1.12-2.5,2.5v17c0,1.381,1.119,2.5,2.5,2.5h8c1.38,0,2.5-1.119,2.5-2.5v-17
		C54.6,125.919,53.48,124.8,52.1,124.8z M48.1,145.8c-0.83,0-1.5-0.67-1.5-1.5s0.67-1.5,1.5-1.5s1.5,0.67,1.5,1.5
		S48.93,145.8,48.1,145.8z M52.6,141.8h-9v-14h9V141.8z"/>
	<g transform="translate(98 124)">
		<defs>
			<filter id="Adobe_OpacityMaskFilter" filterUnits="userSpaceOnUse" x="0" y="4" width="24" height="16">
				<feColorMatrix  type="matrix" values="1 0 0 0 0  0 1 0 0 0  0 0 1 0 0  0 0 0 1 0"/>
			</filter>
		</defs>
		<mask maskUnits="userSpaceOnUse" x="0" y="4" width="24" height="16" id="b">
			<g filter="url(#Adobe_OpacityMaskFilter)">
				<path id="a" fill="#FFFFFF" d="M0,0h24v24H0V0z"/>
			</g>
		</mask>
		<path mask="url(#b)" fill="#FFFFFF" d="M20,18c1.1,0,2-0.9,2-2V6c0-1.1-0.9-2-2-2H4C2.9,4,2,4.9,2,6v10c0,1.1,0.9,2,2,2H0v2h24v-2
			H20z M4,6h16v10H4V6z"/>
	</g>
	<path fill="none" d="M66,124h24v24H66V124z"/>
	<g>
		<path fill="#FFFFFF" d="M69.779,133.286c-1.776,3.007-0.647,7.571,1.317,10.338c0.98,1.384,1.972,2.626,3.331,2.626
			c0.026,0,0.051,0,0.078-0.002c0.638-0.025,1.1-0.217,1.546-0.402c0.5-0.208,1.019-0.424,1.832-0.424
			c0.773,0,1.266,0.209,1.743,0.41c0.47,0.199,0.955,0.404,1.67,0.391c1.531-0.028,2.471-1.368,3.3-2.55
			c0.62-0.888,1.107-1.861,1.447-2.89l0.005-0.019c0.028-0.082-0.012-0.171-0.091-0.206l-0.013-0.005
			c-0.27-0.108-2.634-1.132-2.659-3.923c-0.023-2.267,1.774-3.468,2.135-3.686l0.016-0.01c0.078-0.047,0.103-0.149,0.055-0.227
			c-0.002-0.003-0.004-0.006-0.006-0.009c-1.24-1.772-3.142-2.039-3.907-2.07c-0.113-0.011-0.227-0.017-0.34-0.017
			c-0.9,0-1.761,0.331-2.453,0.598c-0.478,0.184-0.89,0.342-1.175,0.342c-0.32,0-0.735-0.16-1.215-0.346
			c-0.643-0.25-1.37-0.531-2.142-0.531H74.2C72.407,130.7,70.714,131.701,69.779,133.286L69.779,133.286z"/>
		<path fill="#FFFFFF" d="M81.58,125.75c-1.086,0.044-2.388,0.696-3.166,1.586c-0.662,0.747-1.308,1.994-1.138,3.251
			c0.011,0.08,0.077,0.141,0.157,0.146c0.074,0.005,0.149,0.008,0.223,0.008c1.061,0,2.206-0.573,2.988-1.496
			c0.823-0.974,1.24-2.225,1.114-3.345C81.747,125.812,81.669,125.746,81.58,125.75z"/>
	</g>
	<path fill="none" d="M165,124h24v24h-24V124z"/>
	<path fill="#FFFFFF" d="M186,128h-18c-1.1,0-2,0.9-2,2v12c0,1.1,0.9,2,2,2h18c1.1,0,1.99-0.9,1.99-2l0.01-12
		C188,128.9,187.1,128,186,128z M184,142h-14v-12h14V142z"/>
	<path fill="none" d="M132,124h24v24h-24V124z"/>
	<path fill="#FFFFFF" d="M144.2,126.4c-4.971,0-9,4.03-9,9v7c0,1.66,1.34,3,3,3h3v-8h-4v-2c0-3.87,3.13-7,7-7c3.87,0,7,3.13,7,7v2
		h-4v8h3c1.66,0,3-1.34,3-3v-7C153.2,130.43,149.17,126.4,144.2,126.4z M218.07,128.31c0-1.05-0.85-1.91-1.9-1.91h-7.641
		l-5.729,5.73v11.46c0,1.05,0.86,1.91,1.91,1.91h11.47c1.051,0,1.9-0.86,1.9-1.91L218.07,128.31L218.07,128.31z M207.575,142.635
		h-1.91v-1.91h1.91V142.635z M215.215,142.635h-1.91v-3.82h1.91V142.635z M207.575,140.725h-1.91v-5.73h1.91V140.725z
		 M211.395,142.635h-1.91v-5.729h1.91V142.635z M211.395,136.905h-1.91v-1.91h1.91V136.905z M215.215,138.815h-1.91v-3.82h1.91
		V138.815z"/>
	<path fill="none" d="M198,124h24v24h-24V124z M7,123h24v24H7V123z"/>
	<path fill="#FFFFFF" d="M28.41,135.38l-9-9c-0.36-0.36-0.86-0.58-1.41-0.58h-7c-1.1,0-2,0.9-2,2v7c0,0.55,0.22,1.05,0.59,1.42l9,9
		c0.36,0.36,0.86,0.58,1.41,0.58s1.05-0.22,1.41-0.59l7-7c0.37-0.36,0.59-0.86,0.59-1.41C29,136.25,28.77,135.74,28.41,135.38z
		 M12.5,130.8c-0.83,0-1.5-0.67-1.5-1.5s0.67-1.5,1.5-1.5s1.5,0.67,1.5,1.5S13.33,130.8,12.5,130.8z"/>
	<path fill="none" d="M228,124h24v24h-24V124z"/>
	<path fill="#FFFFFF" d="M240,143.759l-3.4,2.703l-1.16-4.185l-4.34,0.189l1.521-4.068L229,136l3.62-2.398l-1.521-4.068l4.34,0.189
		l1.16-4.185l3.4,2.703l3.4-2.703l1.16,4.185l4.34-0.189l-1.521,4.068L251,136l-3.62,2.398l1.521,4.068l-4.34-0.189l-1.16,4.185
		L240,143.759L240,143.759z M236,133.841c0,0.65,0.145,1.138,0.432,1.46c0.271,0.314,0.668,0.492,1.082,0.483
		c0.422,0.006,0.824-0.173,1.101-0.49c0.299-0.328,0.448-0.794,0.448-1.4c0-0.621-0.148-1.092-0.442-1.413
		c-0.284-0.316-0.691-0.492-1.116-0.481c-0.488,0-0.861,0.179-1.117,0.537C236.129,132.895,236,133.33,236,133.841L236,133.841z
		 M237.533,139.544h0.729l3.9-7.544h-0.713L237.533,139.544z M240.629,137.601c0,0.647,0.145,1.133,0.432,1.457
		c0.289,0.324,0.649,0.486,1.082,0.486c0.439,0,0.809-0.164,1.106-0.49c0.297-0.328,0.446-0.794,0.446-1.4
		c0-0.621-0.147-1.093-0.442-1.413c-0.283-0.316-0.69-0.492-1.114-0.481c-0.492,0-0.867,0.178-1.123,0.534
		C240.757,136.651,240.629,137.086,240.629,137.601z"/>
	<path fill="#FFFFFF" d="M305.76,127.2h-14.72c-1.013,0-1.84,0.828-1.84,1.84v11.04c0,1.012,0.827,1.84,1.84,1.84h12.88l3.68,3.68
		v-16.56C307.6,128.028,306.772,127.2,305.76,127.2L305.76,127.2z M303.92,138.24h-11.04v-1.84h11.04V138.24z M303.92,135.48h-11.04
		v-1.84h11.04V135.48z M303.92,132.72h-11.04v-1.84h11.04V132.72z"/>
	<path fill="none" d="M286,124h24v24h-24V124z M256,124h24v24h-24V124z"/>
	<path fill="#FFFFFF" d="M270,126h-8c-1.1,0-1.99,0.9-1.99,2L260,144c0,1.1,0.891,2,1.99,2H274c1.1,0,2-0.9,2-2v-12L270,126z
		 M272,142h-8v-2h8V142z M272,138h-8v-2h8V138z M269,133v-5.5l5.5,5.5H269z"/>
	<g>
		<path fill="#FFFFFF" d="M326.846,130.57c0.82-2.42,3.155-4.17,5.911-4.17h8.499l-3.359,14.212l-0.329,1.39
			c-0.844,2.255-3.059,3.865-5.66,3.865H323.2l3.456-14.612l0.136-0.52c0.017-0.055,0.035-0.109,0.054-0.164V130.57z
			 M328.965,131.792c-0.479,0.386-0.787,0.858-0.878,1.235l-1.798,7.923l0.1-0.002c0.561,0,1.088-0.193,1.566-0.578
			c0.479-0.384,0.784-0.853,0.905-1.396l0.46-2.014h3.859c0.561,0,1.089-0.194,1.573-0.578c0.484-0.385,0.792-0.858,0.911-1.404
			l0.021-0.1h-5.888l0.36-1.585h5.579c0.561,0,1.087-0.192,1.565-0.575c0.478-0.382,0.775-0.863,0.906-1.405l0.022-0.101l-7.7-0.001
			C329.97,131.213,329.442,131.407,328.965,131.792L328.965,131.792z"/>
	</g>
	<g>
		<g transform="translate(26 72)">
			<path fill="none" d="M2,0h31c1.104,0,2,0.896,2,2v31c0,1.104-0.896,2-2,2H2c-1.104,0-2-0.896-2-2V2C0,0.896,0.896,0,2,0z"/>
			<path fill="#FFFFFF" d="M15.429,25c0,0.426-0.156,0.794-0.467,1.105c-0.288,0.301-0.688,0.47-1.105,0.466
				c-0.417,0.004-0.817-0.165-1.105-0.466c-0.301-0.288-0.47-0.688-0.466-1.105c0-0.426,0.155-0.794,0.466-1.105
				c0.288-0.301,0.688-0.47,1.105-0.466c0.426,0,0.794,0.155,1.105,0.466S15.429,24.575,15.429,25z M26.429,25
				c0,0.426-0.156,0.794-0.467,1.105c-0.288,0.301-0.688,0.47-1.105,0.466c-0.417,0.004-0.817-0.165-1.105-0.466
				c-0.301-0.288-0.47-0.688-0.466-1.105c0-0.426,0.155-0.794,0.466-1.105c0.288-0.301,0.688-0.47,1.105-0.466
				c0.426,0,0.794,0.155,1.105,0.466S26.429,24.575,26.429,25z M28,11.643v6.286c0,0.196-0.068,0.37-0.203,0.521
				c-0.126,0.147-0.304,0.241-0.497,0.264l-12.817,1.498c0.107,0.491,0.16,0.778,0.16,0.86c0,0.13-0.098,0.392-0.295,0.785h11.295
				c0.213,0,0.397,0.078,0.552,0.233c0.156,0.156,0.234,0.34,0.234,0.553c0.001,0.208-0.083,0.408-0.234,0.552
				c-0.144,0.151-0.343,0.236-0.552,0.234H13.07c-0.208,0.001-0.408-0.083-0.552-0.234c-0.15-0.144-0.235-0.344-0.233-0.552
				c0-0.09,0.032-0.22,0.098-0.387c0.065-0.168,0.13-0.315,0.196-0.442s0.154-0.29,0.264-0.49c0.11-0.201,0.174-0.322,0.19-0.363
				l-2.172-10.104H8.357c-0.208,0.002-0.408-0.083-0.552-0.233c-0.151-0.144-0.236-0.344-0.234-0.553
				c0-0.212,0.078-0.397,0.234-0.552c0.144-0.15,0.344-0.235,0.552-0.233H11.5c0.228-0.005,0.445,0.095,0.59,0.27
				c0.057,0.073,0.11,0.174,0.159,0.3c0.049,0.127,0.082,0.234,0.098,0.32c0.042,0.227,0.083,0.454,0.123,0.681h14.744
				c0.213,0,0.397,0.078,0.553,0.233C27.922,11.246,28,11.43,28,11.643z"/>
		</g>
	</g>
	<g>
		<path fill="#FFFFFF" d="M162.502,92h-0.794l-0.276-0.274c1.012-1.175,1.569-2.675,1.568-4.226c0-3.59-2.91-6.5-6.5-6.5
			s-6.5,2.91-6.5,6.5s2.91,6.5,6.5,6.5c1.55,0.001,3.05-0.555,4.225-1.566l0.276,0.274V93.5l4.998,4.991L167.49,97L162.502,92z
			 M156.5,92c-2.485,0-4.5-2.015-4.5-4.5s2.015-4.5,4.5-4.5s4.5,2.015,4.5,4.5S158.985,92,156.5,92z"/>
	</g>
	<g opacity="0.501">
		<path d="M80.502,92h-0.794l-0.276-0.274c1.012-1.175,1.569-2.675,1.568-4.226c0-3.59-2.91-6.5-6.5-6.5S68,83.91,68,87.5
			s2.91,6.5,6.5,6.5c1.55,0.001,3.05-0.555,4.225-1.566l0.276,0.274V93.5l4.998,4.991L85.49,97L80.502,92z M74.5,92
			c-2.485,0-4.5-2.015-4.5-4.5s2.015-4.5,4.5-4.5s4.5,2.015,4.5,4.5S76.985,92,74.5,92z"/>
	</g>
	<g>
		<path fill="#EBEBEB" d="M4,95h18v-2H4V95z M4,89h18v-2H4V89z M4,81v2h18v-2H4z"/>
	</g>
	<g>
		<g transform="translate(97 82)">
			<circle fill="#F5A623" cx="7.5" cy="7.5" r="7.5"/>
			<path fill="#FFFFFF" d="M9.271,4.695l1.184,1.184L7.932,8.4L5.864,6.334l-3.83,3.835l0.729,0.73l3.101-3.102l2.068,2.067
				l3.257-3.251l1.184,1.184V4.695H9.271z"/>
			<path fill="none" d="M1,1.593h12.407V14H1V1.593z"/>
		</g>
	</g>
	<g>
		<path fill="#EBEBEB" d="M81.797,174.5c0,0.137-0.057,0.267-0.156,0.359L75.5,181l6.14,6.141c0.199,0.186,0.208,0.499,0.021,0.697
			c-0.007,0.008-0.014,0.016-0.021,0.021l-0.78,0.781c-0.187,0.198-0.5,0.208-0.698,0.021c-0.007-0.008-0.015-0.015-0.021-0.021
			l-7.28-7.281c-0.199-0.186-0.208-0.499-0.021-0.697c0.007-0.008,0.014-0.016,0.021-0.021l7.28-7.281
			c0.187-0.198,0.5-0.208,0.698-0.021c0.007,0.008,0.015,0.015,0.021,0.021l0.78,0.781C81.74,174.233,81.797,174.363,81.797,174.5z"
			/>
	</g>
	<g>
		<path fill="#D0021B" d="M17.991,188.205c0.042,0.282-0.058,0.568-0.266,0.763l-2.535,2.517c-0.126,0.137-0.278,0.246-0.447,0.324
			c-0.171,0.086-0.354,0.144-0.543,0.172c-0.013,0-0.051,0.004-0.115,0.011c-0.063,0.006-0.146,0.009-0.248,0.009
			c-0.241,0-0.632-0.041-1.172-0.124s-1.2-0.286-1.981-0.61c-0.782-0.324-1.668-0.81-2.658-1.459
			c-0.991-0.647-2.046-1.537-3.164-2.67c-0.889-0.876-1.626-1.715-2.21-2.516c-0.523-0.705-0.995-1.447-1.41-2.223
			c-0.318-0.593-0.586-1.211-0.8-1.85c-0.157-0.467-0.278-0.945-0.363-1.43c-0.063-0.4-0.089-0.714-0.076-0.943
			c0.013-0.229,0.02-0.355,0.02-0.382c0.025-0.177,0.082-0.358,0.17-0.543c0.09-0.185,0.198-0.334,0.325-0.448l2.534-2.535
			c0.158-0.17,0.379-0.267,0.61-0.268c0.158-0.002,0.312,0.048,0.438,0.143c0.127,0.096,0.235,0.213,0.324,0.354l2.039,3.87
			c0.114,0.202,0.148,0.44,0.095,0.668c-0.05,0.241-0.159,0.444-0.324,0.61l-0.933,0.934c-0.031,0.035-0.054,0.078-0.067,0.124
			c-0.017,0.046-0.027,0.094-0.029,0.144c0.051,0.266,0.165,0.571,0.343,0.915c0.153,0.306,0.388,0.677,0.705,1.115
			c0.318,0.438,0.769,0.944,1.353,1.517c0.572,0.584,1.08,1.039,1.525,1.362c0.444,0.324,0.816,0.563,1.114,0.716
			c0.299,0.152,0.528,0.244,0.686,0.276l0.239,0.047c0.025,0,0.066-0.01,0.123-0.028c0.046-0.012,0.088-0.035,0.124-0.066
			l1.086-1.106c0.23-0.202,0.496-0.305,0.8-0.305c0.217,0,0.388,0.038,0.515,0.114h0.02l3.677,2.174
			C17.782,187.742,17.941,187.951,17.991,188.205L17.991,188.205z"/>
	</g>
	<path opacity="0.9" fill="#FFFFFF" enable-background="new    " d="M135,90v6h-6v-6h-3l6-6l6,6H135z"/>
	<g>
		<path fill="#FFFFFF" d="M51.355,176.645c-1.683-1.693-3.972-2.646-6.36-2.645c-4.976,0-8.995,4.03-8.995,9.006
			c0,4.975,4.019,9.005,8.994,9.005c4.2,0,7.7-2.87,8.702-6.754h-2.341c-0.951,2.698-3.5,4.503-6.36,4.503
			c-3.729-0.002-6.752-3.024-6.755-6.754c0.002-3.729,3.024-6.752,6.754-6.755c1.869,0,3.535,0.776,4.75,2.004l-3.624,3.625H54V174
			L51.355,176.645z"/>
		<path fill="none" d="M33,171h24v24H33V171z"/>
	</g>
</g>
</svg>
