<?xml version="1.0" encoding="utf-8"?>
<!-- Generator: Adobe Illustrator 16.0.0, SVG Export Plug-In . SVG Version: 6.00 Build 0)  -->
<!DOCTYPE svg PUBLIC "-//W3C//DTD SVG 1.1//EN" "http://www.w3.org/Graphics/SVG/1.1/DTD/svg11.dtd">
<svg version="1.1" id="Layer_1" xmlns="http://www.w3.org/2000/svg" xmlns:xlink="http://www.w3.org/1999/xlink" x="0px" y="0px"
	 width="392.201px" height="159.367px" viewBox="0 0 392.201 159.367" enable-background="new 0 0 392.201 159.367"
	 xml:space="preserve">
<path d="M80.451,97.51c-1.431-3.385-2.631-6.752-4.238-9.912c-3.068-6.035-7.365-10.965-13.725-13.759
	c-5.707-2.507-11.567-2.394-17.477-0.869c-7.962,2.055-14.882,6.188-21.477,10.93c-8.17,5.875-15.454,12.754-22.439,19.967
	c-0.256,0.264-0.521,0.52-0.792,0.77C0.25,104.686,0.149,104.68,0,104.719C1.041,98.764,2.916,93.1,5.246,87.58
	c7.205-17.062,18.007-31.611,31.241-44.429C48.9,31.128,62.923,21.307,78.037,12.995c8.635-4.749,17.53-8.939,26.647-12.667
	c0.186-0.077,0.376-0.142,0.647-0.243c0.206,0.48,0.414,0.913,0.582,1.36c2.49,6.639,4.986,13.274,7.443,19.924
	c0.289,0.784,0.704,1.134,1.531,1.323c19.809,4.526,39.608,9.087,59.41,13.639c0.075,0.017,0.16-0.013,0.379-0.033
	c1.938-8.534,3.887-17.108,5.91-26.016c0.283,0.558,0.463,0.873,0.607,1.203c2.113,4.803,4.245,9.597,6.309,14.421
	c0.352,0.822,0.82,1.254,1.672,1.352c0.242,0.028,0.486,0.094,0.713,0.185c3.128,1.26,6.193,0.631,9.225-0.358
	c0.418-0.136,0.843-0.611,1.03-1.033c2.14-4.792,4.232-9.604,6.342-14.408c0.158-0.365,0.34-0.721,0.667-1.408
	c2.024,8.907,3.976,17.493,5.946,26.168c4.191-0.96,8.297-1.897,12.402-2.84c15.57-3.578,31.137-7.181,46.721-10.699
	c1.343-0.304,1.972-0.894,2.422-2.134c2.359-6.469,4.804-12.906,7.22-19.353c0.155-0.417,0.348-0.82,0.584-1.378
	c3.688,1.616,7.344,3.16,10.951,4.81c16.563,7.575,32.186,16.717,46.377,28.194c15.588,12.61,28.729,27.313,38.223,45.092
	c4.209,7.88,7.545,16.101,9.428,24.869c0.121,0.557,0.207,1.121,0.31,1.682c-0.135,0.129-0.269,0.256-0.402,0.385
	c-0.242-0.404-0.416-0.875-0.735-1.205c-6.974-7.223-14.265-14.094-22.437-19.969c-6.664-4.792-13.67-8.943-21.725-10.978
	c-12.728-3.213-23.406,1.421-30.091,13.282c-1.995,3.543-3.395,7.424-5.137,11.303c-0.121-0.045-0.563-0.197-0.998-0.375
	c-9.395-3.854-19.021-6.928-29.061-8.563c-13.037-2.123-25.905-1.848-38.405,3.023c-11.072,4.316-19.887,11.555-26.967,20.967
	c-8.447,11.232-13.641,23.953-16.801,37.564c-0.389,1.672-0.697,3.361-1.028,4.971c-0.963-3.869-1.795-7.83-2.938-11.697
	c-3.71-12.559-9.228-24.211-17.782-34.258c-10.04-11.791-22.683-18.971-38.058-21.152c-7.61-1.08-15.226-0.818-22.818,0.313
	c-10.767,1.602-21.069,4.813-31.101,8.965C80.954,97.346,80.643,97.441,80.451,97.51z"/>
</svg>
